<svg xmlns="http://www.w3.org/2000/svg">
  <defs>
    <!-- menu -->
    <symbol id="menu" viewBox="0 0 24 24" fill="none" stroke-linecap="round" stroke-linejoin="round" stroke-width="1.5">
      <path d="M3 12h18"/>
      <path d="M3 6h18"/>
      <path d="M3 18h18"/>
    </symbol>

    <!-- x -->
    <symbol id="x" viewBox="0 0 24 24" fill="none" stroke-linecap="round" stroke-linejoin="round" stroke-width="1.5">
      <path d="M18 6L6 18"/>
      <path d="M6 6l12 12"/>
    </symbol>

    <!-- search -->
    <symbol id="search" viewBox="0 0 24 24" fill="none" stroke-linecap="round" stroke-linejoin="round" stroke-width="1.5">
      <path d="M11 17.25a6.25 6.25 0 110-12.5 6.25 6.25 0 010 12.5z"/>
      <path d="M16 16l4.5 4.5"/>
    </symbol>

    <!-- rss -->
    <symbol id="rss" viewBox="0 0 24 24" fill="none" stroke-linecap="round" stroke-linejoin="round" stroke-width="1.5">
      <path d="M4 11a9 9 0 019 9"/>
      <path d="M4 4a16 16 0 0116 16"/>
      <circle cx="5" cy="19" r="1"/>
    </symbol>

    <!-- sun -->
    <symbol id="sun" viewBox="0 0 24 24" fill="none" stroke-linecap="round" stroke-linejoin="round" stroke-width="1.5">
      <circle cx="12" cy="12" r="5"/>
      <path d="M12 1v2"/>
      <path d="M12 21v2"/>
      <path d="M4.22 4.22l1.42 1.42"/>
      <path d="M18.36 18.36l1.42 1.42"/>
      <path d="M1 12h2"/>
      <path d="M21 12h2"/>
      <path d="M4.22 19.78l1.42-1.42"/>
      <path d="M18.36 5.64l1.42-1.42"/>
    </symbol>

    <!-- moon -->
    <symbol id="moon" viewBox="0 0 24 24" fill="none" stroke-linecap="round" stroke-linejoin="round" stroke-width="1.5">
      <path d="M21 12.79A9 9 0 1111.21 3 7 7 0 0021 12.79z"/>
    </symbol>

    <!-- square -->
    <symbol id="square" viewBox="0 0 448 512">
      <path d="M384 80c8.8 0 16 7.2 16 16V416c0 8.8-7.2 16-16 16H64c-8.8 0-16-7.2-16-16V96c0-8.8 7.2-16 16-16H384zM64 32C28.7 32 0 60.7 0 96V416c0 35.3 28.7 64 64 64H384c35.3 0 64-28.7 64-64V96c0-35.3-28.7-64-64-64H64z"/>
    </symbol>

    <!-- square-check -->
    <symbol id="square-check" viewBox="0 0 448 512">
      <path d="M64 32C28.7 32 0 60.7 0 96V416c0 35.3 28.7 64 64 64H384c35.3 0 64-28.7 64-64V96c0-35.3-28.7-64-64-64H64zM337 209L209 337c-9.4 9.4-24.6 9.4-33.9 0l-64-64c-9.4-9.4-9.4-24.6 0-33.9s24.6-9.4 33.9 0l47 47L303 175c9.4-9.4 24.6-9.4 33.9 0s9.4 24.6 0 33.9z"/>
    </symbol>

    <!-- calendar -->
    <symbol id="calendar" fill="none" stroke-linecap="round" stroke-linejoin="round" stroke-width="1.5" viewBox="0 0 24 24">
      <rect x="3" y="4" width="18" height="18" rx="2" ry="2"/>
      <path d="M16 2v4"/>
      <path d="M8 2v4"/>
      <path d="M3 10h18"/>
    </symbol>

    <!-- book-open -->
    <symbol id="book-open" fill="none" stroke-linecap="round" stroke-linejoin="round" stroke-width="1.5" viewBox="0 0 24 24">
      <path d="M2 3h6a4 4 0 014 4v14a3 3 0 00-3-3H2z"/>
      <path d="M22 3h-6a4 4 0 00-4 4v14a3 3 0 013-3h7z"/>
    </symbol>

    <!-- arrow-right -->
    <symbol id="arrow-right" fill="none" stroke-linecap="round" stroke-linejoin="round" stroke-width="1.5" viewBox="0 0 24 24">
      <path d="M5 12h14"/>
      <path d="M12 5l7 7-7 7"/>
    </symbol>

    <!-- globe -->
    <symbol id="globe" viewBox="0 0 16 16">
      <path fill-rule="evenodd" clip-rule="evenodd" d="M10.268 14.0934C11.9051 13.4838 13.2303 12.2333 13.9384 10.6469C13.1192 10.7941 12.2138 10.9111 11.2469 10.9925C11.0336 12.2005 10.695 13.2621 10.268 14.0934ZM8 16C12.4183 16 16 12.4183 16 8C16 3.58172 12.4183 0 8 0C3.58172 0 0 3.58172 0 8C0 12.4183 3.58172 16 8 16ZM8.48347 14.4823C8.32384 14.494 8.16262 14.5 8 14.5C7.83738 14.5 7.67616 14.494 7.51654 14.4823C7.5132 14.4791 7.50984 14.4759 7.50647 14.4726C7.2415 14.2165 6.94578 13.7854 6.67032 13.1558C6.41594 12.5744 6.19979 11.8714 6.04101 11.0778C6.67605 11.1088 7.33104 11.125 8 11.125C8.66896 11.125 9.32395 11.1088 9.95899 11.0778C9.80021 11.8714 9.58406 12.5744 9.32968 13.1558C9.05422 13.7854 8.7585 14.2165 8.49353 14.4726C8.49016 14.4759 8.4868 14.4791 8.48347 14.4823ZM11.4187 9.72246C12.5137 9.62096 13.5116 9.47245 14.3724 9.28806C14.4561 8.87172 14.5 8.44099 14.5 8C14.5 7.55901 14.4561 7.12828 14.3724 6.71194C13.5116 6.52755 12.5137 6.37904 11.4187 6.27753C11.4719 6.83232 11.5 7.40867 11.5 8C11.5 8.59133 11.4719 9.16768 11.4187 9.72246ZM10.1525 6.18401C10.2157 6.75982 10.25 7.36805 10.25 8C10.25 8.63195 10.2157 9.24018 10.1525 9.81598C9.46123 9.85455 8.7409 9.875 8 9.875C7.25909 9.875 6.53877 9.85455 5.84749 9.81598C5.7843 9.24018 5.75 8.63195 5.75 8C5.75 7.36805 5.7843 6.75982 5.84749 6.18401C6.53877 6.14545 7.25909 6.125 8 6.125C8.74091 6.125 9.46123 6.14545 10.1525 6.18401ZM11.2469 5.00748C12.2138 5.08891 13.1191 5.20593 13.9384 5.35306C13.2303 3.7667 11.9051 2.51622 10.268 1.90662C10.695 2.73788 11.0336 3.79953 11.2469 5.00748ZM8.48347 1.51771C8.4868 1.52089 8.49016 1.52411 8.49353 1.52737C8.7585 1.78353 9.05422 2.21456 9.32968 2.84417C9.58406 3.42562 9.80021 4.12856 9.95899 4.92219C9.32395 4.89118 8.66896 4.875 8 4.875C7.33104 4.875 6.67605 4.89118 6.04101 4.92219C6.19978 4.12856 6.41594 3.42562 6.67032 2.84417C6.94578 2.21456 7.2415 1.78353 7.50647 1.52737C7.50984 1.52411 7.51319 1.52089 7.51653 1.51771C7.67615 1.50597 7.83738 1.5 8 1.5C8.16262 1.5 8.32384 1.50597 8.48347 1.51771ZM5.73202 1.90663C4.0949 2.51622 2.76975 3.7667 2.06159 5.35306C2.88085 5.20593 3.78617 5.08891 4.75309 5.00748C4.96639 3.79953 5.30497 2.73788 5.73202 1.90663ZM4.58133 6.27753C3.48633 6.37904 2.48837 6.52755 1.62761 6.71194C1.54392 7.12828 1.5 7.55901 1.5 8C1.5 8.44099 1.54392 8.87172 1.62761 9.28806C2.48837 9.47245 3.48633 9.62096 4.58133 9.72246C4.52807 9.16768 4.5 8.59133 4.5 8C4.5 7.40867 4.52807 6.83232 4.58133 6.27753ZM4.75309 10.9925C3.78617 10.9111 2.88085 10.7941 2.06159 10.6469C2.76975 12.2333 4.0949 13.4838 5.73202 14.0934C5.30497 13.2621 4.96639 12.2005 4.75309 10.9925Z"/>
    </symbol>

    <!-- link -->
    <symbol id="link" viewBox="0 0 16 16">
      <path d="M8.46968 1.46968C10.1433 -0.203925 12.8567 -0.203923 14.5303 1.46968C16.2039 3.14329 16.2039 5.85674 14.5303 7.53034L12.0303 10.0303L10.9697 8.96968L13.4697 6.46968C14.5575 5.38186 14.5575 3.61816 13.4697 2.53034C12.3819 1.44252 10.6182 1.44252 9.53034 2.53034L7.03034 5.03034L5.96968 3.96968L8.46968 1.46968ZM11.5303 5.53034L5.53034 11.5303L4.46968 10.4697L10.4697 4.46968L11.5303 5.53034ZM1.46968 14.5303C3.14329 16.2039 5.85673 16.204 7.53034 14.5303L10.0303 12.0303L8.96968 10.9697L6.46968 13.4697C5.38186 14.5575 3.61816 14.5575 2.53034 13.4697C1.44252 12.3819 1.44252 10.6182 2.53034 9.53034L5.03034 7.03034L3.96968 5.96968L1.46968 8.46968C-0.203923 10.1433 -0.203925 12.8567 1.46968 14.5303Z"/>
    </symbol>
    
    <!-- US flag -->
    <symbol id="flag-us" viewBox="0 0 640 480">
      <path fill="#bd3d44" d="M0 0h640v480H0"/>
      <path stroke="#fff" stroke-width="40" d="M0 60h640M0 140h640M0 220h640M0 300h640M0 380h640"/>
      <path fill="#192f5d" d="M0 0h320v260H0"/>
      <path fill="#fff" d="M20 10h10m20 0h10m20 0h10m20 0h10m20 0h10m20 0h10m20 0h10m20 0h10M25 20h10m20 0h10m20 0h10m20 0h10m20 0h10m20 0h10m20 0h10m20 0h10M20 30h10m20 0h10m20 0h10m20 0h10m20 0h10m20 0h10m20 0h10m20 0h10M25 40h10m20 0h10m20 0h10m20 0h10m20 0h10m20 0h10m20 0h10m20 0h10M20 50h10m20 0h10m20 0h10m20 0h10m20 0h10m20 0h10m20 0h10m20 0h10M25 60h10m20 0h10m20 0h10m20 0h10m20 0h10m20 0h10m20 0h10m20 0h10M20 70h10m20 0h10m20 0h10m20 0h10m20 0h10m20 0h10m20 0h10m20 0h10M25 80h10m20 0h10m20 0h10m20 0h10m20 0h10m20 0h10m20 0h10m20 0h10M20 90h10m20 0h10m20 0h10m20 0h10m20 0h10m20 0h10m20 0h10m20 0h10M25 100h10m20 0h10m20 0h10m20 0h10m20 0h10m20 0h10m20 0h10m20 0h10M20 110h10m20 0h10m20 0h10m20 0h10m20 0h10m20 0h10m20 0h10m20 0h10M25 120h10m20 0h10m20 0h10m20 0h10m20 0h10m20 0h10m20 0h10m20 0h10M20 130h10m20 0h10m20 0h10m20 0h10m20 0h10m20 0h10m20 0h10m20 0h10M25 140h10m20 0h10m20 0h10m20 0h10m20 0h10m20 0h10m20 0h10m20 0h10M20 150h10m20 0h10m20 0h10m20 0h10m20 0h10m20 0h10m20 0h10m20 0h10M25 160h10m20 0h10m20 0h10m20 0h10m20 0h10m20 0h10m20 0h10m20 0h10M20 170h10m20 0h10m20 0h10m20 0h10m20 0h10m20 0h10m20 0h10m20 0h10M25 180h10m20 0h10m20 0h10m20 0h10m20 0h10m20 0h10m20 0h10m20 0h10M20 190h10m20 0h10m20 0h10m20 0h10m20 0h10m20 0h10m20 0h10m20 0h10M25 200h10m20 0h10m20 0h10m20 0h10m20 0h10m20 0h10m20 0h10m20 0h10M20 210h10m20 0h10m20 0h10m20 0h10m20 0h10m20 0h10m20 0h10m20 0h10M25 220h10m20 0h10m20 0h10m20 0h10m20 0h10m20 0h10m20 0h10m20 0h10M20 230h10m20 0h10m20 0h10m20 0h10m20 0h10m20 0h10m20 0h10m20 0h10M25 240h10m20 0h10m20 0h10m20 0h10m20 0h10m20 0h10m20 0h10m20 0h10"/>
    </symbol>
    
    <!-- Brazil flag -->
    <symbol id="flag-br" viewBox="0 0 640 480"><path fill="#229e45" fill-rule="evenodd" d="M0 0h640v480H0z"/>
    <path fill="#f8e509" fill-rule="evenodd" d="m321.4 436 301.5-195.7L319.6 44 17.1 240.7z"/>
    <path fill="#2b49a3" fill-rule="evenodd" d="M452.8 240c0 70.3-57.1 127.3-127.6 127.3A127.4 127.4 0 1 1 452.8 240"/>
    <path fill="#ffffef" fill-rule="evenodd" d="m283.3 316.3-4-2.3-4 2 .9-4.5-3.2-3.4 4.5-.5 2.2-4 1.9 4.2 4.4.8-3.3 3m86 26.3-3.9-2.3-4 2 .8-4.5-3.1-3.3 4.5-.5 2.1-4.1 2 4.2 4.4.8-3.4 3.1m-36.2-30-3.4-2-3.5 1.8.8-3.9-2.8-2.9 4-.4 1.8-3.6 1.6 3.7 3.9.7-3 2.7m87-8.5-3.4-2-3.5 1.8.8-3.9-2.7-2.8 3.9-.4 1.8-3.5 1.6 3.6 3.8.7-2.9 2.6m-87.3-22-4-2.2-4 2 .8-4.6-3.1-3.3 4.5-.5 2.1-4.1 2 4.2 4.4.8-3.4 3.2m-104.6-35-4-2.2-4 2 1-4.6-3.3-3.3 4.6-.5 2-4.1 2 4.2 4.4.8-3.3 3.1m13.3 57.2-4-2.3-4 2 .9-4.5-3.2-3.3 4.5-.6 2.1-4 2 4.2 4.4.8-3.3 3.1m132-67.3-3.6-2-3.6 1.8.8-4-2.8-3 4-.5 1.9-3.6 1.7 3.8 4 .7-3 2.7m-6.7 38.3-2.7-1.6-2.9 1.4.6-3.2-2.2-2.3 3.2-.4 1.5-2.8 1.3 3 3 .5-2.2 2.2m-142.2 50.4-2.7-1.5-2.7 1.3.6-3-2.1-2.2 3-.4 1.4-2.7 1.3 2.8 3 .6-2.3 2M419 299.8l-2.2-1.1-2.2 1 .5-2.3-1.7-1.6 2.4-.3 1.2-2 1 2 2.5.5-1.9 1.5"/>
    <path fill="#ffffef" fill-rule="evenodd" d="m219.3 287.6-2.7-1.5-2.7 1.3.6-3-2.1-2.2 3-.4 1.4-2.7 1.3 2.8 3 .6-2.3 2"/>
    <path fill="#ffffef" fill-rule="evenodd" d="m219.3 287.6-2.7-1.5-2.7 1.3.6-3-2.1-2.2 3-.4 1.4-2.7 1.3 2.8 3 .6-2.3 2m42.3 3-2.6-1.4-2.7 1.3.6-3-2.1-2.2 3-.4 1.4-2.7 1.3 2.8 3 .5-2.3 2.1m-4.8 17-2.6-1.5-2.7 1.4.6-3-2.1-2.3 3-.4 1.4-2.7 1.3 2.8 3 .6-2.3 2m87.4-22.2-2.6-1.6-2.8 1.4.6-3-2-2.3 3-.3 1.4-2.7 1.2 2.8 3 .5-2.2 2.1m-25.1 3-2.7-1.5-2.7 1.4.6-3-2-2.3 3-.3 1.4-2.8 1.2 2.9 3 .5-2.2 2.1m-68.8-5.8-1.7-1-1.7.8.4-1.9-1.3-1.4 1.9-.2.8-1.7.8 1.8 1.9.3-1.4 1.3m167.8 45.4-2.6-1.5-2.7 1.4.6-3-2.1-2.3 3-.4 1.4-2.7 1.3 2.8 3 .6-2.3 2m-20.8 6-2.2-1.4-2.3 1.2.5-2.6-1.7-1.8 2.5-.3 1.2-2.3 1 2.4 2.5.4-1.9 1.8m10.4 2.3-2-1.2-2.1 1 .4-2.3-1.6-1.7 2.3-.3 1.1-2 1 2 2.3.5-1.7 1.6m29.1-22.8-2-1-2 1 .5-2.3-1.6-1.7 2.3-.3 1-2 1 2.1 2.1.4-1.6 1.6m-38.8 41.8-2.5-1.4-2.7 1.2.6-2.8-2-2 3-.3 1.3-2.5 1.2 2.6 3 .5-2.3 1.9m.6 14.2-2.4-1.4-2.4 1.3.6-2.8-1.9-2 2.7-.4 1.2-2.5 1.1 2.6 2.7.5-2 2m-19-23.1-1.9-1.2-2 1 .4-2.2-1.5-1.7 2.2-.2 1-2 1 2 2.2.4-1.6 1.6m-17.8 2.3-2-1.2-2 1 .5-2.2-1.6-1.7 2.3-.2 1-2 1 2 2.1.4-1.6 1.6m-30.4-24.6-2-1.1-2 1 .5-2.3-1.6-1.6 2.2-.3 1-2 1 2 2.2.5-1.6 1.5m3.7 57-1.6-.9-1.8.9.4-2-1.3-1.4 1.9-.2.9-1.7.8 1.8 1.9.3-1.4 1.3m-46.2-86.6-4-2.3-4 2 .9-4.5-3.2-3.3 4.5-.6 2.2-4 1.9 4.2 4.4.8-3.3 3.1"/>
    <path fill="#fff" fill-rule="evenodd" d="M444.4 285.8a125 125 0 0 0 5.8-19.8c-67.8-59.5-143.3-90-238.7-83.7a125 125 0 0 0-8.5 20.9c113-10.8 196 39.2 241.4 82.6"/>
    <path fill="#309e3a" d="m414 252.4 2.3 1.3a3 3 0 0 0-.3 2.2 3 3 0 0 0 1.4 1.7q1 .8 2 .7.9 0 1.3-.7l.2-.9-.5-1q-.3-.5-1.5-1.8a8 8 0 0 1-1.8-3 4 4 0 0 1 2-4.4 4 4 0 0 1 2.3-.2 7 7 0 0 1 2.6 1.2q2.1 1.5 2.6 3.2a4 4 0 0 1-.6 3.3l-2.4-1.5q.5-1 .2-1.7-.2-.8-1.2-1.4a3 3 0 0 0-1.8-.7 1 1 0 0 0-.9.5q-.3.4-.1 1 .2.8 1.6 2.2t2 2.5a4 4 0 0 1-.3 4.2 4 4 0 0 1-1.9 1.5 4 4 0 0 1-2.4.3q-1.3-.3-2.8-1.3-2.2-1.5-2.7-3.3a5 5 0 0 1 .6-4zm-11.6-7.6 2.5 1.3a3 3 0 0 0-.2 2.2 3 3 0 0 0 1.4 1.6q1.1.8 2 .6.9 0 1.3-.8l.2-.8q0-.5-.5-1l-1.6-1.8q-1.7-1.6-2-2.8a4 4 0 0 1 .4-3.1 4 4 0 0 1 1.6-1.4 4 4 0 0 1 2.2-.3 7 7 0 0 1 2.6 1q2.3 1.5 2.7 3.1a4 4 0 0 1-.4 3.4l-2.5-1.4q.5-1 .2-1.7-.4-1-1.3-1.4a3 3 0 0 0-1.9-.6 1 1 0 0 0-.8.5q-.3.4-.1 1 .3.8 1.7 2.2 1.5 1.5 2 2.4a4 4 0 0 1 0 4.2 4 4 0 0 1-1.8 1.6 4 4 0 0 1-2.4.3 8 8 0 0 1-2.9-1.1 6 6 0 0 1-2.8-3.2 5 5 0 0 1 .4-4m-14.2-3.8 7.3-12 8.8 5.5-1.2 2-6.4-4-1.6 2.7 6 3.7-1.3 2-6-3.7-2 3.3 6.7 4-1.2 2zm-20.7-17 1.1-2 5.4 2.7-2.5 5q-1.2.3-3 .2a9 9 0 0 1-3.3-1 8 8 0 0 1-3-2.6 6 6 0 0 1-1-3.5 9 9 0 0 1 1-3.7 8 8 0 0 1 2.6-3 6 6 0 0 1 3.6-1.1q1.4 0 3.2 1 2.4 1.1 3.1 2.8a5 5 0 0 1 .3 3.5l-2.7-.8a3 3 0 0 0-.2-2q-.4-.9-1.6-1.4a4 4 0 0 0-3.1-.3q-1.5.5-2.6 2.6t-.7 3.8a4 4 0 0 0 2 2.4q.8.5 1.7.5h1.8l.8-1.6zm-90.2-22.3 2-14 4.2.7 1.1 9.8 3.9-9 4.2.6-2 13.8-2.7-.4 1.7-10.9-4.4 10.5-2.7-.4-1.1-11.3-1.6 11zm-14.1-1.7 1.3-14 10.3 1-.2 2.4-7.5-.7-.3 3 7 .7-.3 2.4-7-.7-.3 3.8 7.8.7-.2 2.4z"/>
    <g stroke-opacity=".5">
      <path fill="#309e3a" d="M216.5 191.3q0-2.2.7-3.6a7 7 0 0 1 1.4-1.9 5 5 0 0 1 1.8-1.2q1.5-.5 3-.5 3.1.1 5 2a7 7 0 0 1 1.6 5.5q0 3.3-2 5.3a7 7 0 0 1-5 1.7 7 7 0 0 1-4.8-2 7 7 0 0 1-1.7-5.3"/>
      <path fill="#f7ffff" d="M219.4 191.3q0 2.3 1 3.6t2.8 1.3a4 4 0 0 0 2.8-1.1q1-1.2 1.1-3.7.1-2.4-1-3.6a4 4 0 0 0-2.7-1.3 4 4 0 0 0-2.8 1.2q-1.1 1.2-1.2 3.6"/>
    </g>
    <g stroke-opacity=".5">
      <path fill="#309e3a" d="m233 198.5.2-14h6q2.2 0 3.2.5 1 .3 1.6 1.3c.6 1 .6 1.4.6 2.3a4 4 0 0 1-1 2.6 5 5 0 0 1-2.7 1.2l1.5 1.2q.6.6 1.5 2.3l1.7 2.8h-3.4l-2-3.2-1.4-2-.9-.6-1.4-.2h-.6v5.8z"/>
      <path fill="#fff" d="M236 190.5h2q2.1 0 2.6-.2.5-.1.8-.5.4-.6.3-1 0-.9-.4-1.2-.3-.4-1-.6h-2l-2.3-.1z"/>
    </g>
    <g stroke-opacity=".5">
      <path fill="#309e3a" d="m249 185.2 5.2.3q1.7 0 2.6.3a5 5 0 0 1 2 1.4 6 6 0 0 1 1.2 2.4q.4 1.4.3 3.3a9 9 0 0 1-.5 3q-.6 1.5-1.7 2.4a5 5 0 0 1-2 1q-1 .3-2.5.2l-5.3-.3z"/>
      <path fill="#fff" d="m251.7 187.7-.5 9.3h3.8q.8 0 1.2-.5.5-.4.8-1.3t.4-2.6l-.1-2.5a3 3 0 0 0-.8-1.4l-1.2-.7-2.3-.3z"/>
    </g>
    <g stroke-opacity=".5">
      <path fill="#309e3a" d="m317.6 210.2 3.3-13.6 4.4 1 3.2 1q1.1.6 1.6 1.9t.2 2.8q-.3 1.2-1 2a4 4 0 0 1-3 1.4q-1 0-3-.5l-1.7-.5-1.2 5.2z"/>
      <path fill="#fff" d="m323 199.6-.8 3.8 1.5.4q1.6.4 2.2.3a2 2 0 0 0 1.6-1.5q0-.7-.2-1.3a2 2 0 0 0-1-.9l-1.9-.5-1.3-.3z"/>
    </g>
    <g stroke-opacity=".5">
      <path fill="#309e3a" d="m330.6 214.1 4.7-13.2 5.5 2q2.2.8 3 1.4.8.7 1 1.8c.2 1.1.2 1.5 0 2.3q-.6 1.5-1.8 2.2-1.2.6-3 .3.6.7 1 1.6l.8 2.7.6 3.1-3.1-1.1-1-3.6-.7-2.4-.6-.8q-.3-.4-1.3-.7l-.5-.2-2 5.6z"/>
      <path fill="#fff" d="m336 207.4 1.9.7q2 .7 2.5.7t.9-.3q.5-.3.6-.9.3-.6 0-1.2a2 2 0 0 0-.8-.9l-2-.7-2-.7-1.2 3.3z"/>
    </g>
    <g stroke-opacity=".5">
      <path fill="#309e3a" d="M347 213.6a9 9 0 0 1 1.7-3.2 7 7 0 0 1 1.8-1.5l2-.7q1.5-.1 3.1.4a7 7 0 0 1 4.2 3.3q1.2 2.4.2 5.7a7 7 0 0 1-3.4 4.5q-2.3 1.3-5.2.4a7 7 0 0 1-4.2-3.3 7 7 0 0 1-.2-5.6"/>
      <path fill="#fff" d="M349.8 214.4q-.7 2.3 0 3.8c.7 1.5 1.2 1.6 2.3 2q1.5.5 3-.4 1.4-.8 2.1-3.2.8-2.2 0-3.7a4 4 0 0 0-2.2-2 4 4 0 0 0-3 .3q-1.5.8-2.2 3.2"/>
    </g>
    <g stroke-opacity=".5">
      <path fill="#309e3a" d="m374.3 233.1 6.4-12.4 5.3 2.7a10 10 0 0 1 2.7 1.9q.8.7.8 1.9c0 1.2 0 1.5-.4 2.2a4 4 0 0 1-2 2q-1.5.4-3.1-.2.6 1 .8 1.7.3.9.4 2.8l.2 3.2-3-1.5-.4-3.7-.3-2.5-.5-1-1.2-.7-.5-.3-2.7 5.2z"/>
      <path fill="#fff" d="m380.5 227.2 1.9 1q1.8 1 2.3 1t1-.2q.4-.2.7-.8t.2-1.2l-.7-1-1.8-1-2-1z"/>
    </g>
    <g stroke-opacity=".5">
      <path fill="#309e3a" d="M426.1 258.7a9 9 0 0 1 2.5-2.6 7 7 0 0 1 2.2-.9 6 6 0 0 1 2.2 0q1.5.3 2.8 1.2a7 7 0 0 1 3 4.4q.4 2.6-1.4 5.5a7 7 0 0 1-4.5 3.3 7 7 0 0 1-5.2-1.1 7 7 0 0 1-3-4.4q-.4-2.7 1.4-5.4"/>
      <path fill="#fff" d="M428.6 260.3q-1.4 2-1.1 3.6a4 4 0 0 0 1.6 2.5q1.5 1 3 .6t2.9-2.4q1.4-2.1 1.1-3.6t-1.6-2.6c-1.4-1.1-2-.8-3-.5q-1.5.3-3 2.4z"/>
    </g>
    <path fill="#309e3a" d="m301.8 204.5 2.3-9.8 7.2 1.7-.3 1.6-5.3-1.2-.5 2.2 4.9 1.1-.4 1.7-4.9-1.2-.6 2.7 5.5 1.3-.4 1.6z"/>
  </symbol>
  </defs>
</svg>